<svg width="100" height="100" viewBox="0 0 100 100" fill="none" xmlns="http://www.w3.org/2000/svg">
<circle cx="50" cy="50" r="50" fill="#D2D2D2"/>
<g clip-path="url(#clip0)">
<path d="M63.2364 38.8467C62.8296 38.44 62.17 38.44 61.7632 38.8467L59.6798 40.93C59.2731 41.3368 59.2731 41.9964 59.6798 42.4032C60.0868 42.8101 60.7463 42.81 61.1531 42.4032L63.2364 40.3199C63.6432 39.9131 63.6432 39.2535 63.2364 38.8467Z" fill="black"/>
<path d="M38.2364 38.8467C37.8296 38.44 37.17 38.44 36.7632 38.8467L34.6798 40.93C34.2731 41.3368 34.2731 41.9964 34.6798 42.4032C35.0868 42.8101 35.7463 42.81 36.1531 42.4032L38.2364 40.3199C38.6432 39.9131 38.6432 39.2535 38.2364 38.8467Z" fill="black"/>
<path d="M58.0281 34.68C57.6214 34.2733 56.9618 34.2733 56.5549 34.68L54.4716 36.7633C54.0648 37.1701 54.0648 37.8297 54.4716 38.2366C54.8786 38.6434 55.538 38.6433 55.9448 38.2366L58.0281 36.1532C58.4349 35.7465 58.4349 35.0869 58.0281 34.68Z" fill="black"/>
<path d="M45.5281 34.68C45.1214 34.2733 44.4618 34.2733 44.0549 34.68L41.9716 36.7633C41.5648 37.1701 41.5648 37.8297 41.9716 38.2366C42.3786 38.6434 43.038 38.6433 43.4448 38.2366L45.5281 36.1532C45.9349 35.7465 45.9349 35.0869 45.5281 34.68Z" fill="black"/>
<path d="M50.7364 38.8467C50.3296 38.44 49.67 38.44 49.2632 38.8467L47.1798 40.93C46.7731 41.3368 46.7731 41.9964 47.1798 42.4032C47.5868 42.8101 48.2463 42.81 48.6531 42.4032L50.7364 40.3199C51.1432 39.9131 51.1432 39.2535 50.7364 38.8467Z" fill="black"/>
<path d="M76.6666 60.4167C76.6666 58.6935 75.2647 57.2917 73.5416 57.2917H72.4999V53.9344C72.5428 53.8971 72.5866 53.8614 72.6288 53.8229C73.3049 53.2066 74.7172 52.8125 75.638 52.8008C76.2133 52.7936 76.6738 52.3214 76.6665 51.7461C76.6593 51.1754 76.1944 50.7176 75.6251 50.7176C75.6208 50.7176 75.6162 50.7176 75.6118 50.7177C74.7179 50.729 73.5303 50.9662 72.4999 51.4534V48.7229C73.7683 48.2039 74.6115 46.898 74.4304 45.4484C73.2017 35.5725 64.7589 28.125 54.7916 28.125H45.2083C35.241 28.125 26.7981 35.5725 25.5694 45.448C25.3889 46.8933 26.2264 48.2019 27.4999 48.723V51.4075C26.4656 50.939 25.2752 50.7046 24.3613 50.7177C23.7861 50.7252 23.3259 51.1977 23.3334 51.773C23.3409 52.3436 23.8058 52.8009 24.3747 52.8009C24.3793 52.8009 24.384 52.8009 24.3887 52.8008C25.3201 52.7866 26.766 53.1757 27.4712 53.819C27.4805 53.8276 27.4905 53.8357 27.5 53.8443V57.2917H26.4583C24.7318 57.2917 23.3333 58.69 23.3333 60.4167C23.3333 61.9651 24.4655 63.2534 25.9455 63.4988C25.7021 64.1415 25.6846 64.8435 25.9103 65.5106C27.2014 69.3173 30.7704 71.875 34.7916 71.875H65.2083C69.2294 71.875 72.7985 69.3173 74.0898 65.51C74.3153 64.8435 74.2978 64.1418 74.0545 63.4993C75.5066 63.2605 76.6666 61.9969 76.6666 60.4167ZM27.6367 45.7056C28.7361 36.8707 36.2901 30.2083 45.2083 30.2083H54.7916C63.7097 30.2083 71.2638 36.8707 72.3631 45.7061C72.4384 46.3081 71.9687 46.8323 71.3886 46.8711C71.3817 46.8716 71.3748 46.8722 71.3679 46.8728C71.3501 46.8744 71.3323 46.875 71.3145 46.875H28.6853C28.0718 46.875 27.5583 46.3348 27.6367 45.7056ZM66.3789 52.2833C64.0898 50.1959 61.0141 50.1959 58.725 52.2833C57.2303 53.6462 55.3735 53.6462 53.8789 52.2833C51.5898 50.1959 48.5141 50.1959 46.225 52.2833C44.7303 53.6462 42.8735 53.6462 41.3789 52.2833C39.0898 50.196 36.0141 50.1958 33.7248 52.2835C32.458 53.4396 30.9404 53.623 29.5833 52.8099V48.9583H70.4166V52.8703C69.0875 53.6098 67.609 53.4051 66.3789 52.2833ZM70.4166 55.1295V57.2917H29.5833V55.0982C30.1465 55.2931 30.7245 55.3906 31.302 55.3905C32.6463 55.3905 33.987 54.8647 35.129 53.8227C36.6236 52.4598 38.4805 52.4598 39.9751 53.8227C42.2642 55.9103 45.34 55.9102 47.629 53.8227C49.1237 52.4598 50.9806 52.4598 52.4751 53.8227C54.7642 55.9103 57.84 55.9102 60.129 53.8227C61.6236 52.4597 63.4805 52.4599 64.9751 53.8227C66.5686 55.276 68.5692 55.7227 70.4166 55.1295ZM72.1166 64.8416C71.1124 67.8023 68.3362 69.7917 65.2083 69.7917H34.7916C31.6637 69.7917 28.8874 67.8023 27.8836 64.8422C27.6674 64.2036 28.2188 63.5417 28.902 63.5417H71.0978C71.7836 63.5417 72.3314 64.2068 72.1166 64.8416ZM73.5416 61.4583H26.4583C25.8839 61.4583 25.4166 60.991 25.4166 60.4167C25.4166 59.8416 25.8831 59.375 26.4583 59.375H73.5416C74.116 59.375 74.5833 59.8423 74.5833 60.4167C74.5833 60.9918 74.1167 61.4583 73.5416 61.4583Z" fill="black"/>
</g>
<defs>
<clipPath id="clip0">
<rect width="53.3333" height="53.3333" fill="white" transform="translate(23.3333 23.3333)"/>
</clipPath>
</defs>
</svg>
