<svg width="30" height="33" viewBox="0 0 30 33" fill="none" xmlns="http://www.w3.org/2000/svg">
<path d="M29.6 20.164V13.3227H25.9402L17.2771 4.05631C17.3744 3.73888 17.4278 3.39764 17.4278 3.04202C17.4278 1.36464 16.249 0 14.8 0C13.351 0 12.1722 1.36464 12.1722 3.04202C12.1722 3.3976 12.2256 3.73888 12.3229 4.05631L3.65978 13.3227H0V20.164H1.03466L4.62962 32.318H24.9703L28.5653 20.164H29.6V20.164ZM19.6137 23.8025H15.8375V20.1971H19.9213L19.6137 23.8025ZM13.7625 29.9159H10.5078L10.1912 26.2046H13.7625V29.9159ZM9.98628 23.8025L9.67874 20.1971H13.7625V23.8025H9.98628ZM15.3528 3.04202C15.3528 3.22751 15.2839 3.39432 15.1746 3.51128C15.076 3.61683 14.9446 3.68193 14.8 3.68193C14.6554 3.68193 14.524 3.61683 14.4254 3.51128C14.3161 3.39428 14.2472 3.22751 14.2472 3.04202C14.2472 2.85653 14.3161 2.68972 14.4254 2.57276C14.524 2.46721 14.6554 2.4021 14.8 2.4021C14.9446 2.4021 15.076 2.46721 15.1746 2.57276C15.2839 2.68976 15.3528 2.85653 15.3528 3.04202ZM13.7315 5.82019C14.0582 5.98926 14.4196 6.08407 14.8 6.08407C15.1804 6.08407 15.5418 5.98926 15.8685 5.82019L22.8826 13.3227H6.71743L13.7315 5.82019ZM2.07505 15.7248H27.5249V17.7619H2.07505V15.7248ZM7.59362 20.1971L7.90116 23.8025H4.30421L3.23781 20.1971H7.59362ZM6.11246 29.9159L5.0147 26.2046H8.10607L8.42263 29.9159H6.11246ZM15.8375 26.2046H19.4088L19.0922 29.9159H15.8375V26.2046ZM23.4875 29.9159H21.1773L21.4939 26.2046H24.5853L23.4875 29.9159ZM25.2958 23.8025H21.6988L22.0064 20.1971H26.3622L25.2958 23.8025Z" fill="#0C0D36"/>
</svg>
