<svg width="72" height="28" viewBox="0 0 72 28" fill="none" xmlns="http://www.w3.org/2000/svg">
<rect width="72" height="28" rx="14" fill="#E7E7E7"/>
<path d="M17.0781 18V9.46875H19.4629C20.1621 9.46875 20.7891 9.62891 21.3438 9.94922C21.8984 10.2656 22.3301 10.7207 22.6387 11.3145C22.9512 11.9082 23.1074 12.584 23.1074 13.3418V14.127C23.1074 14.8887 22.9531 15.5645 22.6445 16.1543C22.3359 16.7441 21.9004 17.1992 21.3379 17.5195C20.7793 17.8398 20.1367 18 19.4102 18H17.0781ZM17.7988 10.084V17.3906H19.416C20.3145 17.3906 21.0352 17.0938 21.5781 16.5C22.1211 15.9023 22.3926 15.0957 22.3926 14.0801V13.3301C22.3926 12.3496 22.125 11.5645 21.5898 10.9746C21.0547 10.3848 20.3496 10.0879 19.4746 10.084H17.7988ZM28.7793 18C28.709 17.8008 28.6641 17.5059 28.6445 17.1152C28.3984 17.4355 28.084 17.6836 27.7012 17.8594C27.3223 18.0312 26.9199 18.1172 26.4941 18.1172C25.8848 18.1172 25.3906 17.9473 25.0117 17.6074C24.6367 17.2676 24.4492 16.8379 24.4492 16.3184C24.4492 15.7012 24.7051 15.2129 25.2168 14.8535C25.7324 14.4941 26.4492 14.3145 27.3672 14.3145H28.6387V13.5938C28.6387 13.1406 28.498 12.7852 28.2168 12.5273C27.9395 12.2656 27.5332 12.1348 26.998 12.1348C26.5098 12.1348 26.1055 12.2598 25.7852 12.5098C25.4648 12.7598 25.3047 13.0605 25.3047 13.4121L24.6016 13.4062C24.6016 12.9023 24.8359 12.4668 25.3047 12.0996C25.7734 11.7285 26.3496 11.543 27.0332 11.543C27.7402 11.543 28.2969 11.7207 28.7031 12.0762C29.1133 12.4277 29.3242 12.9199 29.3359 13.5527V16.5527C29.3359 17.166 29.4004 17.625 29.5293 17.9297V18H28.7793ZM26.5762 17.4961C27.0449 17.4961 27.4629 17.3828 27.8301 17.1562C28.2012 16.9297 28.4707 16.627 28.6387 16.248V14.8535H27.3848C26.6855 14.8613 26.1387 14.9902 25.7441 15.2402C25.3496 15.4863 25.1523 15.8262 25.1523 16.2598C25.1523 16.6152 25.2832 16.9102 25.5449 17.1445C25.8105 17.3789 26.1543 17.4961 26.5762 17.4961ZM30.9297 14.7715C30.9297 13.7793 31.1484 12.9941 31.5859 12.416C32.0273 11.834 32.625 11.543 33.3789 11.543C34.2422 11.543 34.8984 11.8867 35.3477 12.5742L35.3828 11.6602H36.0391V17.8711C36.0391 18.6875 35.8105 19.334 35.3535 19.8105C34.8965 20.2871 34.2773 20.5254 33.4961 20.5254C33.0547 20.5254 32.6328 20.4258 32.2305 20.2266C31.832 20.0312 31.5176 19.7695 31.2871 19.4414L31.6797 19.0195C32.1758 19.6289 32.7656 19.9336 33.4492 19.9336C34.0352 19.9336 34.4922 19.7598 34.8203 19.4121C35.1484 19.0684 35.3184 18.5898 35.3301 17.9766V17.1797C34.8809 17.8047 34.2266 18.1172 33.3672 18.1172C32.6328 18.1172 32.043 17.8242 31.5977 17.2383C31.1523 16.6523 30.9297 15.8613 30.9297 14.8652V14.7715ZM31.6387 14.8945C31.6387 15.7031 31.8008 16.3418 32.125 16.8105C32.4492 17.2754 32.9062 17.5078 33.4961 17.5078C34.3594 17.5078 34.9707 17.1211 35.3301 16.3477V13.4004C35.166 12.9941 34.9297 12.6855 34.6211 12.4746C34.3125 12.2598 33.9414 12.1523 33.5078 12.1523C32.918 12.1523 32.459 12.3848 32.1309 12.8496C31.8027 13.3105 31.6387 13.9922 31.6387 14.8945ZM38.6523 18H37.9492V11.6602H38.6523V18ZM37.8262 9.82617C37.8262 9.69336 37.8691 9.58203 37.9551 9.49219C38.041 9.39844 38.1582 9.35156 38.3066 9.35156C38.4551 9.35156 38.5723 9.39844 38.6582 9.49219C38.748 9.58203 38.793 9.69336 38.793 9.82617C38.793 9.95898 38.748 10.0703 38.6582 10.1602C38.5723 10.25 38.4551 10.2949 38.3066 10.2949C38.1582 10.2949 38.041 10.25 37.9551 10.1602C37.8691 10.0703 37.8262 9.95898 37.8262 9.82617ZM41.2305 11.6602L41.2539 12.7441C41.4922 12.3535 41.7891 12.0566 42.1445 11.8535C42.5 11.6465 42.8926 11.543 43.3223 11.543C44.002 11.543 44.5078 11.7344 44.8398 12.1172C45.1719 12.5 45.3398 13.0742 45.3438 13.8398V18H44.6465V13.834C44.6426 13.2676 44.5215 12.8457 44.2832 12.5684C44.0488 12.291 43.6719 12.1523 43.1523 12.1523C42.7188 12.1523 42.334 12.2891 41.998 12.5625C41.666 12.832 41.4199 13.1973 41.2598 13.6582V18H40.5625V11.6602H41.2305ZM46.8789 14.7715C46.8789 13.7793 47.0977 12.9941 47.5352 12.416C47.9766 11.834 48.5742 11.543 49.3281 11.543C50.1914 11.543 50.8477 11.8867 51.2969 12.5742L51.332 11.6602H51.9883V17.8711C51.9883 18.6875 51.7598 19.334 51.3027 19.8105C50.8457 20.2871 50.2266 20.5254 49.4453 20.5254C49.0039 20.5254 48.582 20.4258 48.1797 20.2266C47.7812 20.0312 47.4668 19.7695 47.2363 19.4414L47.6289 19.0195C48.125 19.6289 48.7148 19.9336 49.3984 19.9336C49.9844 19.9336 50.4414 19.7598 50.7695 19.4121C51.0977 19.0684 51.2676 18.5898 51.2793 17.9766V17.1797C50.8301 17.8047 50.1758 18.1172 49.3164 18.1172C48.582 18.1172 47.9922 17.8242 47.5469 17.2383C47.1016 16.6523 46.8789 15.8613 46.8789 14.8652V14.7715ZM47.5879 14.8945C47.5879 15.7031 47.75 16.3418 48.0742 16.8105C48.3984 17.2754 48.8555 17.5078 49.4453 17.5078C50.3086 17.5078 50.9199 17.1211 51.2793 16.3477V13.4004C51.1152 12.9941 50.8789 12.6855 50.5703 12.4746C50.2617 12.2598 49.8906 12.1523 49.457 12.1523C48.8672 12.1523 48.4082 12.3848 48.0801 12.8496C47.752 13.3105 47.5879 13.9922 47.5879 14.8945Z" fill="black"/>
</svg>
