<svg width="150" height="150" viewBox="0 0 150 150" fill="none" xmlns="http://www.w3.org/2000/svg">
<circle cx="75" cy="75" r="75" fill="#D2D2D2"/>
<g clip-path="url(#clip0)">
<path d="M96.6662 66.6654H49.9984C47.2416 66.6654 44.9983 68.9088 44.9983 71.6656V74.9989C44.9983 86.8925 51.5684 97.6794 62.142 103.15C62.9587 103.57 63.9653 103.253 64.3887 102.433C64.8088 101.616 64.492 100.61 63.672 100.186C54.2118 95.2927 48.3317 85.6424 48.3317 74.9988V71.6654C48.3317 70.7454 49.0784 69.9986 49.9984 69.9986H96.6662C97.5862 69.9986 98.333 70.7454 98.333 71.6654V74.9988C98.333 85.6423 92.4528 95.2925 82.9893 100.183C82.1693 100.606 81.8526 101.613 82.2726 102.429C82.5693 103.003 83.1526 103.333 83.7559 103.333C84.0159 103.333 84.2759 103.273 84.5192 103.146C95.0962 97.6791 101.666 86.8956 101.666 74.9986V71.6652C101.666 68.9088 99.4228 66.6654 96.6662 66.6654Z" fill="black"/>
<path d="M111.543 101.026C111.283 100.403 110.676 99.9962 110.003 99.9962H36.668C35.9947 99.9962 35.3879 100.403 35.1279 101.026C34.8679 101.65 35.0112 102.366 35.4879 102.843L39.2247 106.583C41.4315 108.786 44.3581 110 47.4749 110H99.1894C102.306 110 105.236 108.787 107.446 106.583L111.183 102.843C111.66 102.366 111.803 101.65 111.543 101.026ZM105.086 104.226C103.513 105.8 101.416 106.666 99.1929 106.666H47.4749C45.2516 106.666 43.1548 105.8 41.5815 104.226L40.6882 103.333H105.98L105.086 104.226Z" fill="black"/>
<path d="M111.777 74.5356C107.287 71.6488 100.113 74.7823 99.3097 75.1456C98.4729 75.5289 98.0996 76.5157 98.4829 77.3557C98.8662 78.1957 99.8497 78.5657 100.693 78.1824C102.3 77.4524 107.453 75.7224 109.973 77.3457C111.11 78.0757 111.667 79.4925 111.667 81.6658C111.667 88.3392 98.2062 92.3728 93.0094 93.3661L91.8293 93.5993C90.926 93.7761 90.3393 94.6527 90.516 95.5561C90.6728 96.3494 91.3693 96.8994 92.1494 96.8994C92.2561 96.8994 92.3626 96.8894 92.4726 96.8661L93.6427 96.6361C94.516 96.4694 115 92.4528 115 81.6658C115 78.3124 113.913 75.9157 111.777 74.5356Z" fill="black"/>
<path d="M86.3094 52.7051C89.0194 49.3183 89.0194 44.0149 86.3094 40.6281C85.7326 39.9081 84.6893 39.7881 83.966 40.3681C83.246 40.9448 83.1293 41.9914 83.706 42.7114C85.4228 44.8548 85.4228 48.4783 83.7027 50.6283C80.9894 54.0151 80.9894 59.3185 83.7027 62.7053C84.0327 63.1186 84.516 63.3321 85.006 63.3321C85.3693 63.3321 85.7393 63.2121 86.0461 62.9653C86.7661 62.3886 86.8828 61.3386 86.3061 60.622C84.586 58.4785 84.586 54.8552 86.3094 52.7051Z" fill="black"/>
<path d="M76.2958 52.7051C79.0091 49.3183 79.0091 44.0149 76.2958 40.6281C75.7225 39.9081 74.6725 39.7914 73.9524 40.3681C73.2324 40.9448 73.1157 41.9949 73.6924 42.7114C75.4125 44.8548 75.4125 48.4783 73.6892 50.6283C70.9791 54.0151 70.9791 59.3186 73.6892 62.7054C74.0192 63.1186 74.5025 63.3321 74.9925 63.3321C75.3558 63.3321 75.7225 63.2121 76.0325 62.9654C76.7525 62.3886 76.8692 61.342 76.2925 60.622C74.5757 58.4785 74.5757 54.8552 76.2958 52.7051Z" fill="black"/>
<path d="M66.3089 52.7084C69.0189 49.3216 69.0189 44.0182 66.3089 40.6314C65.7356 39.9114 64.6888 39.7914 63.9655 40.3714C63.2488 40.9447 63.1322 41.9947 63.7055 42.7114C65.4223 44.8548 65.4223 48.4783 63.7022 50.6283C60.9889 54.0151 60.9889 59.3185 63.7022 62.7053C64.0323 63.1186 64.5155 63.3321 65.0056 63.3321C65.3688 63.3321 65.7389 63.2121 66.0456 62.9688C66.7656 62.3921 66.8823 61.342 66.3056 60.6254C64.5855 58.4785 64.5855 54.8584 66.3089 52.7084Z" fill="black"/>
</g>
<defs>
<clipPath id="clip0">
<rect width="80" height="80" fill="white" transform="translate(35 35)"/>
</clipPath>
</defs>
</svg>
