<svg width="158" height="40" viewBox="0 0 158 40" fill="none" xmlns="http://www.w3.org/2000/svg">
<path d="M57.6426 25.2695C57.6426 24.7161 57.4473 24.293 57.0566 24C56.666 23.7005 55.9629 23.388 54.9473 23.0625C53.9316 22.7305 53.1276 22.4049 52.5352 22.0859C50.9206 21.2135 50.1133 20.0384 50.1133 18.5605C50.1133 17.7923 50.3281 17.1087 50.7578 16.5098C51.194 15.9043 51.8158 15.4323 52.623 15.0938C53.4368 14.7552 54.3483 14.5859 55.3574 14.5859C56.373 14.5859 57.278 14.7715 58.0723 15.1426C58.8665 15.5072 59.4818 16.0247 59.918 16.6953C60.3607 17.3659 60.582 18.1276 60.582 18.9805H57.6523C57.6523 18.3294 57.4473 17.8249 57.0371 17.4668C56.627 17.1022 56.0508 16.9199 55.3086 16.9199C54.5924 16.9199 54.0358 17.0729 53.6387 17.3789C53.2415 17.6784 53.043 18.0755 53.043 18.5703C53.043 19.0326 53.2741 19.4199 53.7363 19.7324C54.2051 20.0449 54.8919 20.3379 55.7969 20.6113C57.4635 21.1126 58.6777 21.7344 59.4395 22.4766C60.2012 23.2188 60.582 24.1432 60.582 25.25C60.582 26.4805 60.1165 27.4473 59.1855 28.1504C58.2546 28.847 57.0013 29.1953 55.4258 29.1953C54.332 29.1953 53.3359 28.9967 52.4375 28.5996C51.5391 28.196 50.8522 27.6458 50.377 26.9492C49.9082 26.2526 49.6738 25.4453 49.6738 24.5273H52.6133C52.6133 26.0964 53.5508 26.8809 55.4258 26.8809C56.1224 26.8809 56.666 26.7409 57.0566 26.4609C57.4473 26.1745 57.6426 25.7773 57.6426 25.2695ZM65.3672 29H62.5352V18.4336H65.3672V29ZM62.3691 15.6992C62.3691 15.276 62.5091 14.9277 62.7891 14.6543C63.0755 14.3809 63.4629 14.2441 63.9512 14.2441C64.4329 14.2441 64.8171 14.3809 65.1035 14.6543C65.39 14.9277 65.5332 15.276 65.5332 15.6992C65.5332 16.1289 65.3867 16.4805 65.0938 16.7539C64.8073 17.0273 64.4264 17.1641 63.9512 17.1641C63.4759 17.1641 63.0918 17.0273 62.7988 16.7539C62.5124 16.4805 62.3691 16.1289 62.3691 15.6992ZM72.5645 29.1953C71.015 29.1953 69.752 28.7201 68.7754 27.7695C67.8053 26.819 67.3203 25.5527 67.3203 23.9707V23.6973C67.3203 22.6361 67.5254 21.6888 67.9355 20.8555C68.3457 20.0156 68.9251 19.3711 69.6738 18.9219C70.429 18.4661 71.2884 18.2383 72.252 18.2383C73.6973 18.2383 74.8333 18.694 75.6602 19.6055C76.4935 20.5169 76.9102 21.8092 76.9102 23.4824V24.6348H70.1816C70.2728 25.3249 70.5462 25.8783 71.002 26.2949C71.4642 26.7116 72.0469 26.9199 72.75 26.9199C73.8372 26.9199 74.6868 26.526 75.2988 25.7383L76.6855 27.291C76.2624 27.89 75.6895 28.3587 74.9668 28.6973C74.2441 29.0293 73.4434 29.1953 72.5645 29.1953ZM72.2422 20.5234C71.6823 20.5234 71.2266 20.7122 70.875 21.0898C70.5299 21.4674 70.3086 22.0078 70.2109 22.7109H74.1367V22.4863C74.1237 21.8613 73.9544 21.3796 73.6289 21.041C73.3034 20.696 72.8411 20.5234 72.2422 20.5234ZM81.1191 18.4336L81.207 19.6543C81.9622 18.7103 82.9746 18.2383 84.2441 18.2383C85.3639 18.2383 86.1973 18.5671 86.7441 19.2246C87.291 19.8822 87.571 20.8652 87.584 22.1738V29H84.7617V22.2422C84.7617 21.6432 84.6315 21.2103 84.3711 20.9434C84.1107 20.6699 83.6777 20.5332 83.0723 20.5332C82.278 20.5332 81.6823 20.8717 81.2852 21.5488V29H78.4629V18.4336H81.1191ZM93.1113 15.8359V18.4336H94.918V20.5039H93.1113V25.7773C93.1113 26.168 93.1862 26.4479 93.3359 26.6172C93.4857 26.7865 93.7721 26.8711 94.1953 26.8711C94.5078 26.8711 94.7845 26.8483 95.0254 26.8027V28.9414C94.472 29.1107 93.9023 29.1953 93.3164 29.1953C91.3372 29.1953 90.3281 28.196 90.2891 26.1973V20.5039H88.7461V18.4336H90.2891V15.8359H93.1113ZM102.613 29C102.483 28.7461 102.389 28.4303 102.33 28.0527C101.646 28.8145 100.758 29.1953 99.6641 29.1953C98.6289 29.1953 97.7695 28.8958 97.0859 28.2969C96.4089 27.6979 96.0703 26.9427 96.0703 26.0312C96.0703 24.9115 96.4837 24.0521 97.3105 23.4531C98.1439 22.8542 99.3451 22.5514 100.914 22.5449H102.213V21.9395C102.213 21.4512 102.086 21.0605 101.832 20.7676C101.585 20.4746 101.191 20.3281 100.65 20.3281C100.175 20.3281 99.8008 20.4421 99.5273 20.6699C99.2604 20.8978 99.127 21.2103 99.127 21.6074H96.3047C96.3047 20.9954 96.4935 20.429 96.8711 19.9082C97.2487 19.3874 97.7826 18.9805 98.4727 18.6875C99.1628 18.388 99.9375 18.2383 100.797 18.2383C102.099 18.2383 103.131 18.5671 103.893 19.2246C104.661 19.8757 105.045 20.7936 105.045 21.9785V26.5586C105.051 27.5612 105.191 28.3197 105.465 28.834V29H102.613ZM100.279 27.0371C100.696 27.0371 101.08 26.946 101.432 26.7637C101.783 26.5749 102.044 26.3242 102.213 26.0117V24.1953H101.158C99.7454 24.1953 98.9935 24.6836 98.9023 25.6602L98.8926 25.8262C98.8926 26.1777 99.0163 26.4674 99.2637 26.6953C99.5111 26.9232 99.8496 27.0371 100.279 27.0371ZM112.662 23.7949H110.328V29H107.398V14.7812H112.682C114.361 14.7812 115.657 15.1556 116.568 15.9043C117.48 16.653 117.936 17.7109 117.936 19.0781C117.936 20.0482 117.724 20.8587 117.301 21.5098C116.884 22.1543 116.249 22.6686 115.396 23.0527L118.473 28.8633V29H115.328L112.662 23.7949ZM110.328 21.4219H112.691C113.427 21.4219 113.997 21.2363 114.4 20.8652C114.804 20.4876 115.006 19.9701 115.006 19.3125C115.006 18.6419 114.814 18.1146 114.43 17.7305C114.052 17.3464 113.469 17.1543 112.682 17.1543H110.328V21.4219ZM124.85 29.1953C123.3 29.1953 122.037 28.7201 121.061 27.7695C120.09 26.819 119.605 25.5527 119.605 23.9707V23.6973C119.605 22.6361 119.811 21.6888 120.221 20.8555C120.631 20.0156 121.21 19.3711 121.959 18.9219C122.714 18.4661 123.574 18.2383 124.537 18.2383C125.982 18.2383 127.118 18.694 127.945 19.6055C128.779 20.5169 129.195 21.8092 129.195 23.4824V24.6348H122.467C122.558 25.3249 122.831 25.8783 123.287 26.2949C123.749 26.7116 124.332 26.9199 125.035 26.9199C126.122 26.9199 126.972 26.526 127.584 25.7383L128.971 27.291C128.548 27.89 127.975 28.3587 127.252 28.6973C126.529 29.0293 125.729 29.1953 124.85 29.1953ZM124.527 20.5234C123.967 20.5234 123.512 20.7122 123.16 21.0898C122.815 21.4674 122.594 22.0078 122.496 22.7109H126.422V22.4863C126.409 21.8613 126.24 21.3796 125.914 21.041C125.589 20.696 125.126 20.5234 124.527 20.5234ZM136.529 26.0801C136.529 25.735 136.357 25.4648 136.012 25.2695C135.673 25.0677 135.126 24.8887 134.371 24.7324C131.858 24.2051 130.602 23.1374 130.602 21.5293C130.602 20.5918 130.989 19.8105 131.764 19.1855C132.545 18.554 133.564 18.2383 134.82 18.2383C136.161 18.2383 137.232 18.554 138.033 19.1855C138.84 19.8171 139.244 20.6374 139.244 21.6465H136.422C136.422 21.2428 136.292 20.9108 136.031 20.6504C135.771 20.3835 135.364 20.25 134.811 20.25C134.335 20.25 133.967 20.3574 133.707 20.5723C133.447 20.7871 133.316 21.0605 133.316 21.3926C133.316 21.7051 133.463 21.959 133.756 22.1543C134.055 22.3431 134.557 22.5091 135.26 22.6523C135.963 22.7891 136.555 22.9453 137.037 23.1211C138.528 23.668 139.273 24.6152 139.273 25.9629C139.273 26.9264 138.86 27.7077 138.033 28.3066C137.206 28.8991 136.139 29.1953 134.83 29.1953C133.945 29.1953 133.157 29.0391 132.467 28.7266C131.783 28.4076 131.246 27.9746 130.855 27.4277C130.465 26.8743 130.27 26.2786 130.27 25.6406H132.945C132.971 26.1419 133.157 26.526 133.502 26.793C133.847 27.0599 134.309 27.1934 134.889 27.1934C135.429 27.1934 135.836 27.0924 136.109 26.8906C136.389 26.6823 136.529 26.4121 136.529 26.0801ZM144.479 15.8359V18.4336H146.285V20.5039H144.479V25.7773C144.479 26.168 144.553 26.4479 144.703 26.6172C144.853 26.7865 145.139 26.8711 145.562 26.8711C145.875 26.8711 146.152 26.8483 146.393 26.8027V28.9414C145.839 29.1107 145.27 29.1953 144.684 29.1953C142.704 29.1953 141.695 28.196 141.656 26.1973V20.5039H140.113V18.4336H141.656V15.8359H144.479ZM147.125 23.6191C147.125 22.571 147.327 21.6367 147.73 20.8164C148.134 19.9961 148.714 19.3613 149.469 18.9121C150.23 18.4629 151.113 18.2383 152.115 18.2383C153.541 18.2383 154.703 18.6745 155.602 19.5469C156.507 20.4193 157.011 21.6042 157.115 23.1016L157.135 23.8242C157.135 25.4453 156.682 26.7474 155.777 27.7305C154.872 28.707 153.658 29.1953 152.135 29.1953C150.611 29.1953 149.394 28.707 148.482 27.7305C147.577 26.7539 147.125 25.4258 147.125 23.7461V23.6191ZM149.947 23.8242C149.947 24.8268 150.136 25.5951 150.514 26.1289C150.891 26.6562 151.432 26.9199 152.135 26.9199C152.818 26.9199 153.352 26.6595 153.736 26.1387C154.12 25.6113 154.312 24.7715 154.312 23.6191C154.312 22.6361 154.12 21.8743 153.736 21.334C153.352 20.7936 152.812 20.5234 152.115 20.5234C151.425 20.5234 150.891 20.7936 150.514 21.334C150.136 21.8678 149.947 22.6979 149.947 23.8242Z" fill="#1B2E5E"/>
<circle cx="20" cy="20" r="20" fill="#1B2E5E"/>
<ellipse cx="20" cy="20" rx="15" ry="14" fill="white"/>
<path d="M20.472 27.126C19.632 27.126 18.876 26.982 18.204 26.694C17.532 26.394 17.004 25.974 16.62 25.434C16.236 24.894 16.044 24.264 16.044 23.544H18.24C18.288 24.084 18.498 24.528 18.87 24.876C19.254 25.224 19.788 25.398 20.472 25.398C21.18 25.398 21.732 25.23 22.128 24.894C22.524 24.546 22.722 24.102 22.722 23.562C22.722 23.142 22.596 22.8 22.344 22.536C22.104 22.272 21.798 22.068 21.426 21.924C21.066 21.78 20.562 21.624 19.914 21.456C19.098 21.24 18.432 21.024 17.916 20.808C17.412 20.58 16.98 20.232 16.62 19.764C16.26 19.296 16.08 18.672 16.08 17.892C16.08 17.172 16.26 16.542 16.62 16.002C16.98 15.462 17.484 15.048 18.132 14.76C18.78 14.472 19.53 14.328 20.382 14.328C21.594 14.328 22.584 14.634 23.352 15.246C24.132 15.846 24.564 16.674 24.648 17.73H22.38C22.344 17.274 22.128 16.884 21.732 16.56C21.336 16.236 20.814 16.074 20.166 16.074C19.578 16.074 19.098 16.224 18.726 16.524C18.354 16.824 18.168 17.256 18.168 17.82C18.168 18.204 18.282 18.522 18.51 18.774C18.75 19.014 19.05 19.206 19.41 19.35C19.77 19.494 20.262 19.65 20.886 19.818C21.714 20.046 22.386 20.274 22.902 20.502C23.43 20.73 23.874 21.084 24.234 21.564C24.606 22.032 24.792 22.662 24.792 23.454C24.792 24.09 24.618 24.69 24.27 25.254C23.934 25.818 23.436 26.274 22.776 26.622C22.128 26.958 21.36 27.126 20.472 27.126Z" fill="#1E1E1E"/>
</svg>
