<svg width="100" height="100" viewBox="0 0 100 100" fill="none" xmlns="http://www.w3.org/2000/svg">
<circle cx="50" cy="50" r="50" fill="#D2D2D2"/>
<g clip-path="url(#clip0)">
<path d="M76.3142 37.1646L76.0754 35.4459C76.0155 35.0146 75.7901 34.6334 75.4406 34.3734C75.0915 34.113 74.6619 34.0056 74.231 34.0719L46.2717 38.3482C46.3698 37.4888 46.6156 36.964 46.9288 36.2987C46.9817 36.1864 47.0363 36.0656 47.0912 35.937L72.7337 28.2349C73.1507 28.1095 73.4925 27.8284 73.6968 27.4435C73.9002 27.0586 73.9405 26.6175 73.8095 26.2021L73.2879 24.5473C73.1568 24.1319 72.8712 23.7938 72.4835 23.5953C72.0957 23.3963 71.6542 23.3625 71.2405 23.4992L63.5985 26.0231C63.1896 26.1582 62.9675 26.5992 63.1025 27.0085C63.2376 27.4175 63.6783 27.6396 64.088 27.5045L71.7299 24.9807C71.7356 24.9786 71.7523 24.9733 71.7722 24.9839C71.793 24.9941 71.7979 25.0108 71.7995 25.0161L72.3215 26.6712C72.3232 26.6765 72.3284 26.6932 72.3175 26.7136C72.3069 26.7339 72.2902 26.7388 72.2849 26.7404L47.7133 34.1207C47.7239 34.0813 47.7328 34.041 47.743 34.0015C47.752 33.9653 47.7609 33.9295 47.7695 33.8933C47.7849 33.829 47.8 33.7647 47.8146 33.7C47.8236 33.6593 47.8325 33.6186 47.8415 33.5775C47.8545 33.5165 47.8671 33.4555 47.8789 33.3945C47.8887 33.3464 47.898 33.298 47.907 33.2492C47.9171 33.1939 47.9273 33.1389 47.9371 33.0836C47.9468 33.027 47.9562 32.9697 47.9652 32.9123C47.9696 32.883 47.9753 32.8537 47.9798 32.8248L60.6133 28.6523C61.0222 28.5172 61.2443 28.0758 61.1093 27.6669C60.9742 27.2575 60.5331 27.0354 60.1238 27.1705L47.9001 31.2079C47.815 31.0606 47.7027 30.928 47.5648 30.8189C47.2059 30.5362 46.7327 30.4523 46.299 30.596L45.0141 31.0203C44.4941 31.1916 44.1304 31.6547 44.0872 32.1999C44.0795 32.2963 44.0697 32.3878 44.0587 32.4765L42.3405 33.0441C42.2718 32.9245 42.1855 32.8142 42.0809 32.7186C41.7196 32.3878 41.2061 32.278 40.7407 32.4318L39.3105 32.9042C38.924 33.0315 38.618 33.3237 38.4707 33.7041C38.3747 33.9515 38.2624 34.1927 38.1521 34.4271L36.3171 35.0333C36.272 34.9548 36.2191 34.88 36.1572 34.8104C35.7971 34.4039 35.2312 34.2513 34.7157 34.4214L33.1447 34.9402C32.746 35.072 32.4364 35.3727 32.2952 35.7649C32.2158 35.9838 32.1475 36.206 32.0856 36.4306L30.3308 37.0104C30.2575 36.8834 30.1623 36.767 30.0476 36.6661C29.6826 36.3463 29.1895 36.2467 28.7289 36.3988L27.4416 36.824C26.9346 36.9916 26.5717 37.4441 26.5167 37.9767C26.5066 38.076 26.4976 38.1769 26.4895 38.279L24.7692 38.8474C23.9347 39.1229 23.4709 40.029 23.7349 40.8671L23.8566 41.2524C23.9978 41.7008 24.3212 42.0442 24.72 42.2294C24.532 42.537 24.4445 42.9084 24.4974 43.2905L24.5531 43.6908C24.665 44.4944 25.3616 45.0836 26.1542 45.0836C26.2201 45.0836 26.2864 45.0795 26.3536 45.0714L27.942 44.8724C28.1406 45.4103 28.2651 46.0035 28.2651 46.9414C28.2651 48.3882 27.9701 49.0156 27.5612 49.8843C27.3097 50.4189 27.0318 51.011 26.8166 51.7747H24.2317C23.8842 51.7747 23.5514 51.9224 23.3183 52.1795C23.0856 52.4371 22.9716 52.7829 23.0062 53.1287C23.4786 57.8574 25.5447 66.5841 34.0622 72.0989V73.4339C34.0622 74.7473 35.1311 75.8161 36.4449 75.8161H56.7826C58.0959 75.8161 59.1648 74.7473 59.1648 73.4339V72.0932C67.6746 66.5784 69.7403 57.8554 70.2127 53.1283C70.2473 52.7829 70.1333 52.4371 69.9002 52.1795C69.6675 51.9224 69.3347 51.7747 68.9876 51.7747H46.8939C46.9057 51.7494 46.9166 51.7254 46.9288 51.6994C47.422 50.6505 48.0364 49.3452 48.0364 46.9414C48.0364 44.7569 47.529 43.4797 47.0664 42.4775L74.9154 38.9898C75.3475 38.9357 75.7315 38.7156 75.9964 38.3697C76.2617 38.0243 76.3744 37.5963 76.3142 37.1646V37.1646ZM25.3445 40.7833L25.2233 40.398C25.2143 40.3691 25.2302 40.3386 25.2583 40.3292L26.4716 39.9285C26.4736 39.9683 26.4764 40.0066 26.4789 40.0461C26.4805 40.0701 26.4817 40.0941 26.4834 40.1181C26.4874 40.175 26.4915 40.2316 26.4964 40.2881C26.4964 40.2914 26.4968 40.2943 26.4972 40.2975C26.5025 40.3614 26.5074 40.4257 26.5139 40.4887L25.4129 40.8195C25.384 40.8281 25.3539 40.8118 25.3445 40.7833ZM26.1599 43.5232C26.1302 43.5265 26.1025 43.5057 26.0985 43.476L26.0431 43.0757C26.0387 43.046 26.0594 43.0183 26.0891 43.0138L27.0668 42.8645C27.0701 42.8734 27.0737 42.882 27.0774 42.8913C27.1055 42.9654 27.1344 43.0374 27.1633 43.1082C27.1681 43.12 27.1726 43.1322 27.1779 43.144C27.21 43.2229 27.243 43.2998 27.276 43.3751C27.2768 43.3776 27.278 43.3804 27.2792 43.3828L26.1599 43.5232ZM44.2744 36.4436C44.2748 36.4424 44.2752 36.4411 44.2756 36.4399C44.3566 36.2007 44.4457 35.9777 44.538 35.7645C44.538 35.7641 44.5385 35.7637 44.5385 35.7629C44.6308 35.5501 44.7264 35.3471 44.8204 35.1473C44.8302 35.1261 44.8404 35.1046 44.8501 35.0834C44.8652 35.0513 44.8806 35.0187 44.8957 34.9862C44.9071 34.9621 44.9181 34.9381 44.9295 34.9137C44.9575 34.8527 44.986 34.7913 45.0137 34.729C45.0173 34.7209 45.021 34.7123 45.0251 34.7038C45.0499 34.6476 45.0747 34.5903 45.0995 34.5325C45.1069 34.5158 45.1138 34.4987 45.1211 34.4816C45.148 34.4173 45.1744 34.3522 45.2004 34.2855C45.2065 34.2705 45.2118 34.255 45.2179 34.2399C45.2387 34.1854 45.259 34.1301 45.279 34.0739C45.2863 34.0524 45.294 34.0308 45.3018 34.0088C45.3245 33.9425 45.3465 33.875 45.3677 33.8054C45.3754 33.7806 45.3827 33.7549 45.39 33.7293C45.4055 33.6764 45.4206 33.6223 45.4352 33.5678C45.4421 33.5409 45.4494 33.5141 45.4564 33.4868C45.4747 33.4132 45.4922 33.3375 45.5084 33.2598C45.5109 33.2484 45.5137 33.2382 45.5162 33.2264C45.5174 33.2215 45.5174 33.2167 45.5186 33.2114C45.5658 32.9807 45.6041 32.7325 45.6305 32.4599L46.4915 32.1755C46.4788 32.2845 46.4654 32.3935 46.4495 32.5022C46.4471 32.5201 46.4443 32.5372 46.4418 32.5547C46.4276 32.6495 46.4125 32.7435 46.3958 32.8378C46.3914 32.8643 46.3869 32.8907 46.382 32.9168C46.3621 33.0254 46.3413 33.1341 46.3185 33.2419C46.3173 33.2476 46.3157 33.2533 46.3145 33.259C46.2929 33.3595 46.2697 33.4591 46.2453 33.5588C46.2376 33.5902 46.2298 33.6211 46.2221 33.6524C46.1973 33.7505 46.1717 33.8481 46.1444 33.9454C46.1411 33.9568 46.1379 33.9686 46.1346 33.9799C46.1057 34.08 46.0756 34.1797 46.0443 34.2794C46.0382 34.2989 46.0317 34.3193 46.0256 34.3388C45.9914 34.445 45.9556 34.5504 45.9186 34.6554C45.9161 34.6627 45.9137 34.6696 45.9108 34.6765C45.871 34.7884 45.8295 34.8999 45.7855 35.0102C45.7851 35.0114 45.7851 35.0122 45.7847 35.0134C45.6936 35.2441 45.6028 35.452 45.517 35.6343C45.0788 36.5656 44.665 37.4453 44.665 39.2404C44.665 39.249 44.6654 39.2563 44.6654 39.2644V39.2657C44.6654 39.356 44.667 39.4439 44.6695 39.5301C44.6707 39.5867 44.6735 39.6408 44.6756 39.6957C44.6772 39.7279 44.6784 39.7604 44.68 39.7922C44.6833 39.8552 44.6874 39.9171 44.6918 39.9781C44.6931 39.9924 44.6943 40.0066 44.6951 40.0208C44.7399 40.5909 44.8334 41.0563 44.9559 41.4648C44.9571 41.4697 44.9588 41.4746 44.9604 41.4795C45.0027 41.6199 45.0483 41.7541 45.0967 41.8831C45.0975 41.8847 45.0983 41.8868 45.0987 41.8884C45.2257 42.2265 45.3697 42.5345 45.517 42.8478C45.9886 43.8499 46.476 44.8867 46.476 46.9414C46.476 48.9965 45.9886 50.0328 45.517 51.0354C45.4055 51.273 45.2912 51.5151 45.1854 51.7747H44.2992C44.4567 51.3218 44.6406 50.9312 44.8204 50.5483C45.2586 49.617 45.6724 48.7369 45.6724 46.9414C45.6724 45.1462 45.2586 44.2662 44.8204 43.3344C44.6129 42.8938 44.4026 42.4458 44.2321 41.9083C44.2317 41.9067 44.2313 41.9055 44.2309 41.9043C44.0116 41.2105 43.8923 40.4574 43.8671 39.6013C43.8671 39.6005 43.8667 39.5993 43.8667 39.5981C43.8634 39.4825 43.8618 39.3637 43.8618 39.2409C43.8614 38.0162 44.0347 37.1532 44.2744 36.4436V36.4436ZM41.6468 51.6994C42.1399 50.6505 42.7539 49.3452 42.7539 46.9414C42.7539 45.1857 42.4264 44.0164 42.0577 43.1045L42.963 42.9914C43.1095 43.3629 43.2641 43.6921 43.4082 43.9989C43.8171 44.8671 44.1121 45.4945 44.1121 46.9414C44.1121 48.3882 43.8171 49.0156 43.4082 49.8843C43.1567 50.4189 42.8788 51.011 42.664 51.7747H41.6118C41.6236 51.749 41.6346 51.725 41.6468 51.6994V51.6994ZM41.388 41.6158C41.3827 41.6032 41.377 41.5906 41.3717 41.5775C41.3571 41.5425 41.3425 41.5071 41.3282 41.4713C41.3152 41.4392 41.3026 41.4071 41.2904 41.3749C41.2696 41.3208 41.2493 41.2659 41.2302 41.2101C41.2253 41.1967 41.2208 41.1829 41.2163 41.1694C41.1691 41.0278 41.126 40.8797 41.0894 40.7194L42.3649 40.5245C42.3661 40.5339 42.3678 40.5429 42.3686 40.5522C42.3845 40.6995 42.4028 40.8419 42.4235 40.9794C42.4256 40.9941 42.4276 41.0087 42.43 41.0234C42.4524 41.1678 42.4772 41.307 42.5045 41.4412C42.5065 41.4526 42.5081 41.4644 42.5102 41.4754L41.388 41.6158ZM42.3031 34.6997L43.4908 34.3075C43.4863 34.3164 43.4822 34.325 43.4781 34.3339C43.4606 34.3722 43.4427 34.4104 43.4244 34.4487C43.4191 34.4601 43.4139 34.4715 43.4082 34.4833C43.295 34.7233 43.1758 34.9776 43.0591 35.2551C43.0562 35.2612 43.0538 35.2673 43.0509 35.2738C43.0155 35.3593 42.9797 35.4467 42.9447 35.5367C42.9423 35.5432 42.9398 35.5493 42.9374 35.5558L41.8384 35.8858C41.9983 35.5338 42.1603 35.1477 42.3031 34.6997ZM41.0938 37.7387L42.4508 37.331C42.3702 37.8086 42.3173 38.3453 42.3043 38.9552L40.9437 39.1631C40.9486 38.5768 41.0023 38.126 41.0938 37.7387ZM38.6485 37.9889C38.6489 37.9869 38.6493 37.9852 38.6498 37.9836C38.7437 37.1979 38.9232 36.5937 39.1282 36.0725C39.1307 36.0664 39.1327 36.0607 39.1352 36.0546C39.1697 35.9675 39.2051 35.8825 39.2405 35.7995C39.2466 35.7857 39.2523 35.7722 39.2584 35.7584C39.2702 35.7307 39.2824 35.7035 39.2942 35.6762C39.3003 35.6632 39.306 35.6494 39.3121 35.6363C39.3288 35.5985 39.3459 35.5611 39.3626 35.524C39.3667 35.5155 39.3707 35.507 39.3748 35.4984C39.389 35.4671 39.4033 35.4358 39.4175 35.4048C39.4578 35.3186 39.4977 35.2327 39.538 35.1473C39.6503 34.9088 39.7764 34.6411 39.8911 34.3555L40.8725 34.0312C40.6943 34.6476 40.4616 35.1518 40.2508 35.5997C40.2455 35.6115 40.2398 35.6229 40.2345 35.6347C40.2272 35.6494 40.2207 35.664 40.2138 35.6791C40.1971 35.7136 40.1808 35.7486 40.1645 35.784C40.1507 35.8133 40.1369 35.843 40.123 35.8727C40.1133 35.8939 40.1035 35.915 40.0938 35.9366C40.0754 35.9761 40.0575 36.016 40.0396 36.0558C40.0356 36.0644 40.0315 36.0733 40.0278 36.0823C39.6747 36.8712 39.3825 37.733 39.3825 39.2404C39.3825 39.5668 39.3964 39.8617 39.4216 40.1335V40.1384C39.422 40.1405 39.422 40.1425 39.4224 40.1441C39.4261 40.1828 39.4305 40.219 39.4346 40.2564C39.4391 40.2987 39.4436 40.3414 39.4484 40.3825C39.4554 40.4363 39.4627 40.4883 39.4704 40.54C39.4729 40.5583 39.4757 40.577 39.4786 40.5953C39.5697 41.1869 39.7186 41.6573 39.8932 42.0857C39.8993 42.1004 39.905 42.1154 39.9111 42.1297C39.9184 42.148 39.9261 42.1655 39.9338 42.1834C39.9518 42.2269 39.9701 42.2696 39.9888 42.3119C39.9924 42.3201 39.9957 42.3282 39.9994 42.3364C40.0693 42.4954 40.1401 42.6464 40.2089 42.7929C40.2089 42.7933 40.2093 42.7937 40.2093 42.7937C40.2178 42.8116 40.226 42.8295 40.2345 42.847C40.7061 43.8495 41.1935 44.8858 41.1935 46.941C41.1935 48.9965 40.7061 50.0328 40.2345 51.035C40.1226 51.2726 40.0087 51.5147 39.9025 51.7743H39.0163C39.1742 51.3214 39.3577 50.9308 39.5376 50.5479C39.9758 49.6166 40.39 48.7369 40.39 46.941C40.39 45.1454 39.9762 44.2658 39.538 43.334C39.4086 43.0594 39.278 42.7815 39.1567 42.4812C39.1567 42.4808 39.1567 42.4804 39.1563 42.48C38.8735 41.7798 38.712 41.121 38.6327 40.3447C38.6323 40.3423 38.6318 40.3398 38.6314 40.3374C38.5977 40.0058 38.579 39.6428 38.579 39.2404C38.579 38.775 38.6042 38.3616 38.6485 37.9889V37.9889ZM38.1261 43.9989C38.5346 44.8671 38.8296 45.4945 38.8296 46.9414C38.8296 48.3882 38.5346 49.0156 38.1261 49.8843C37.8747 50.4189 37.5964 51.0114 37.3815 51.7747H36.3293C36.3411 51.749 36.3525 51.725 36.3643 51.6994C36.8579 50.6505 37.4718 49.3448 37.4718 46.9414C37.4718 45.5661 37.2709 44.551 37.0064 43.7372L37.9495 43.6192C38.0089 43.7498 38.0683 43.8764 38.1261 43.9989V43.9989ZM36.2028 41.8355C36.202 41.8343 36.2016 41.8331 36.2008 41.8318C36.1491 41.7175 36.0999 41.6044 36.0535 41.4897L37.1964 41.3151C37.1988 41.3281 37.2021 41.3407 37.2045 41.3542C37.2265 41.4689 37.2501 41.5808 37.2749 41.689C37.2806 41.7134 37.2867 41.7378 37.2924 41.7627C37.3193 41.8754 37.3473 41.9844 37.377 42.0902C37.3795 42.0992 37.3815 42.1085 37.384 42.1175L36.3916 42.2416C36.3826 42.222 36.3733 42.2025 36.3643 42.1834C36.3627 42.1801 36.3615 42.1769 36.3599 42.1736C36.3057 42.0585 36.2528 41.9462 36.2028 41.8355ZM36.167 36.7264L37.3966 36.3203C37.3669 36.422 37.3392 36.5286 37.3124 36.6368C37.3103 36.6446 37.3083 36.6523 37.3062 36.66C37.2709 36.8041 37.2379 36.9538 37.2078 37.1104C37.2062 37.1194 37.2045 37.1288 37.2025 37.1377C37.1931 37.1873 37.1838 37.2358 37.1748 37.2866L35.8236 37.6923C35.909 37.346 36.0254 37.0441 36.167 36.7264ZM37.0218 38.9617C37.0202 39.0533 37.019 39.1456 37.019 39.2409C37.019 39.4207 37.0227 39.594 37.0292 39.7621L35.6901 39.9667C35.6743 39.7844 35.6653 39.5855 35.6625 39.3698L37.0218 38.9617ZM34.9578 35.6233L34.9712 35.6298C34.9692 35.6331 34.9667 35.6367 34.9647 35.64L34.9529 35.6347C34.9541 35.6306 34.9557 35.627 34.9578 35.6233ZM33.2997 38.9772C33.301 38.9247 33.303 38.8743 33.3046 38.8234C33.3058 38.7921 33.3067 38.7599 33.3079 38.729C33.3107 38.6676 33.314 38.6082 33.3176 38.5492C33.3189 38.53 33.3197 38.5109 33.3209 38.4922C33.325 38.4295 33.3299 38.3685 33.3347 38.3087C33.336 38.2941 33.3372 38.2798 33.3384 38.2656C33.3441 38.2037 33.3498 38.1435 33.3563 38.0845C33.3575 38.0731 33.3587 38.0613 33.3604 38.0499C33.3791 37.8831 33.4015 37.7277 33.4259 37.5816C33.432 37.5462 33.4377 37.5108 33.4442 37.4758C33.4495 37.4473 33.4548 37.4197 33.4601 37.392C33.4706 37.3383 33.4812 37.285 33.493 37.2317C33.5663 36.892 33.6505 36.6149 33.7282 36.3907L34.7592 36.0501C34.3999 36.848 34.1001 37.7126 34.1001 39.2409C34.1001 40.774 34.402 41.6394 34.7629 42.4397C34.7633 42.4405 34.7637 42.4413 34.7641 42.4421C34.7946 42.5089 34.8247 42.5756 34.8556 42.6419C34.8569 42.644 34.8577 42.6464 34.8589 42.6484C34.8894 42.7148 34.9207 42.7811 34.9521 42.8474C34.9553 42.8543 34.9582 42.8608 34.9614 42.8673C34.9989 42.9471 35.0367 43.028 35.0749 43.1102C35.0766 43.1139 35.0782 43.1176 35.0798 43.1212C35.1221 43.2128 35.1645 43.3059 35.2064 43.4012H35.2068C35.5839 44.2588 35.9111 45.2585 35.9111 46.9414C35.9111 48.9961 35.4232 50.0328 34.9521 51.0354C34.8402 51.2726 34.7263 51.5151 34.6201 51.7743H33.7339C33.8918 51.3214 34.0753 50.9308 34.2555 50.5479C34.6937 49.6166 35.1075 48.7365 35.1075 46.9414C35.1075 45.1462 34.6937 44.2662 34.2551 43.3344C34.2144 43.2474 34.1733 43.1599 34.1326 43.072C34.1326 43.072 34.1326 43.0716 34.1322 43.0716C34.1025 43.0073 34.0724 42.9418 34.0423 42.8743C34.0415 42.8722 34.0407 42.8702 34.0399 42.8686C33.823 42.386 33.5972 41.8115 33.4552 41.0681C33.4544 41.0653 33.4535 41.0624 33.4527 41.0596C33.3673 40.6084 33.3111 40.0933 33.2993 39.4854C33.2993 39.485 33.2993 39.4846 33.2993 39.4842C33.2977 39.4044 33.2965 39.3234 33.2965 39.2404C33.2969 39.1517 33.2977 39.0639 33.2997 38.9772ZM32.9584 44.2442C33.3063 44.9957 33.5475 45.6345 33.5475 46.9414C33.5475 48.3882 33.2521 49.0156 32.8436 49.8843C32.5922 50.4189 32.3143 51.011 32.0991 51.7747H31.0469C31.0591 51.7494 31.0701 51.7254 31.0823 51.6994C31.5754 50.6505 32.1894 49.3452 32.1894 46.9414C32.1894 45.9043 32.0751 45.0718 31.9054 44.376L32.9584 44.2442ZM32.0954 42.0951C32.0978 42.104 32.1007 42.1122 32.1031 42.1207C32.1324 42.2241 32.1625 42.3242 32.1939 42.4214C32.1975 42.432 32.2012 42.4426 32.2044 42.4531C32.2374 42.554 32.2712 42.6521 32.3058 42.7473C32.3066 42.7489 32.3074 42.7514 32.3078 42.753L31.3939 42.8677C31.3935 42.8669 31.3931 42.8661 31.3931 42.8657C31.2987 42.646 31.2031 42.4409 31.1112 42.2456L32.0954 42.0951ZM31.8049 40.5612L31.5848 40.5945L31.8016 40.5294C31.8024 40.54 31.8037 40.5506 31.8049 40.5612ZM30.3833 38.952C30.3837 38.9394 30.3837 38.9267 30.3841 38.9145C30.3873 38.8234 30.3922 38.7347 30.3983 38.648C30.3987 38.6423 30.3991 38.6366 30.3995 38.6309L31.7797 38.1752C31.7776 38.196 31.7768 38.2176 31.7752 38.2383C31.7715 38.2879 31.7683 38.338 31.765 38.388C31.7589 38.4816 31.7536 38.5764 31.7496 38.672C31.7471 38.7229 31.7451 38.7742 31.7439 38.8254C31.7426 38.8568 31.741 38.8873 31.7402 38.919L30.3796 39.3275C30.3792 39.2982 30.3784 39.2706 30.3784 39.2409C30.3784 39.1416 30.3804 39.046 30.3833 38.952ZM28.1459 40.9212C28.1455 40.9184 28.1455 40.916 28.145 40.9131C28.1011 40.6568 28.069 40.3919 28.047 40.1152C28.047 40.1108 28.0466 40.1059 28.0462 40.1014C28.0417 40.0436 28.0376 39.985 28.0344 39.9264C28.0332 39.9053 28.0319 39.8841 28.0307 39.8626C28.0287 39.8186 28.0262 39.7739 28.0246 39.7291C28.0234 39.7047 28.0226 39.6803 28.0218 39.6555C28.0201 39.6099 28.0189 39.5635 28.0181 39.5171C28.0177 39.4947 28.0169 39.4724 28.0165 39.45C28.0153 39.3808 28.0144 39.3112 28.0144 39.2409C28.0144 39.1733 28.0157 39.1066 28.0169 39.0399C28.0177 38.991 28.0189 38.9426 28.0201 38.8946C28.0266 38.6785 28.0384 38.4674 28.0568 38.2639L28.899 37.986C28.8896 38.0511 28.8823 38.1183 28.875 38.1854C28.8725 38.2074 28.8693 38.229 28.8668 38.2513C28.8587 38.329 28.8522 38.4092 28.8465 38.4894C28.8445 38.5162 28.8416 38.5422 28.84 38.5691C28.8347 38.648 28.831 38.729 28.8278 38.8108C28.8266 38.8401 28.8245 38.8686 28.8237 38.8987C28.8201 39.0102 28.8184 39.1241 28.8184 39.2409C28.8184 39.3511 28.8201 39.4589 28.8229 39.5647C28.8656 41.0071 29.194 41.8229 29.563 42.6183C29.5667 42.6261 29.5703 42.6342 29.574 42.6423C29.6061 42.7107 29.6379 42.779 29.6704 42.8478C29.672 42.8511 29.6737 42.8543 29.6753 42.858C29.7148 42.9418 29.7546 43.0264 29.7941 43.1127C29.7949 43.1139 29.7957 43.1155 29.7961 43.1172C29.9219 43.3889 30.0468 43.6721 30.1595 43.9826C30.1595 43.983 30.1599 43.983 30.1599 43.9834C30.4284 44.7235 30.6294 45.6223 30.6294 46.9414C30.6294 48.9965 30.142 50.0328 29.6704 51.0354C29.5585 51.273 29.4446 51.5151 29.3384 51.7747H28.4522C28.6101 51.3218 28.7936 50.9312 28.9738 50.5483C29.4116 49.617 29.8258 48.7369 29.8258 46.9414C29.8258 45.1491 29.4133 44.269 28.9759 43.3393C28.9751 43.3377 28.9747 43.3361 28.9738 43.3344C28.9519 43.2884 28.9303 43.2421 28.9087 43.1957C28.901 43.1798 28.8937 43.1635 28.886 43.1473C28.8632 43.0984 28.8404 43.0488 28.8172 42.9988C28.8123 42.9882 28.8074 42.9776 28.8026 42.967C28.7781 42.9137 28.7541 42.8596 28.7297 42.8047C28.7269 42.7982 28.7236 42.7912 28.7208 42.7843C28.6951 42.7261 28.6695 42.6672 28.6443 42.6069C28.6431 42.6041 28.6422 42.6016 28.641 42.5988C28.534 42.3437 28.4327 42.0723 28.344 41.7728C28.3436 41.7708 28.3428 41.7692 28.3424 41.7671C28.2659 41.5092 28.1992 41.2301 28.1459 40.9212V40.9212ZM68.6218 53.335C68.1067 57.8737 66.0491 65.8306 58.2123 70.8502H42.2457C41.8148 70.8502 41.4657 71.1997 41.4657 71.6306C41.4657 72.0615 41.8148 72.4106 42.2457 72.4106H57.6044V73.4335C57.6044 73.8871 57.2358 74.2558 56.7826 74.2558H36.4449C35.9916 74.2558 35.6226 73.8871 35.6226 73.4335V72.4106H38.6156C39.0465 72.4106 39.396 72.0615 39.396 71.6306C39.396 71.1997 39.0465 70.8502 38.6156 70.8502H35.0066C27.1698 65.8298 25.1126 57.8737 24.5975 53.335H68.6218ZM74.7583 37.4205C74.7441 37.4388 74.727 37.4408 74.7213 37.4416L46.4406 40.9831C46.3568 40.6946 46.2884 40.3557 46.2526 39.9297L74.4674 35.614C74.4731 35.6131 74.4902 35.6107 74.5085 35.6245C74.5268 35.638 74.5292 35.6551 74.53 35.6608L74.7689 37.3798C74.7697 37.3851 74.7721 37.4026 74.7583 37.4205Z" fill="black"/>
</g>
<defs>
<clipPath id="clip0">
<rect width="53.33" height="53.33" fill="white" transform="translate(23 23)"/>
</clipPath>
</defs>
</svg>
