<svg width="100" height="100" viewBox="0 0 100 100" fill="none" xmlns="http://www.w3.org/2000/svg">
<circle cx="50" cy="50" r="50" fill="#D2D2D2"/>
<g clip-path="url(#clip0)">
<path d="M63.5705 34.9823C63.9388 35.2274 64.4308 35.2105 64.7826 34.9428C65.1139 34.6906 65.2615 34.2484 65.1542 33.8472C65.0392 33.4171 64.6494 33.1011 64.2049 33.077C63.7626 33.0531 63.3438 33.3222 63.1809 33.7336C63.0033 34.1818 63.1652 34.7167 63.5705 34.9823Z" fill="black"/>
<path d="M68.1089 37.0584C67.7612 36.6001 67.108 36.51 66.6495 36.858C66.1912 37.2056 66.1014 37.8591 66.4491 38.3175C70.5667 43.7458 72.813 50.1789 72.9688 56.9667L68.9235 58.2504C68.4952 55.1784 67.8087 52.3134 66.8782 49.7181C66.8781 49.7179 66.8781 49.7177 66.878 49.7175C65.9302 47.0712 64.7044 44.6387 63.2343 42.4873C63.2338 42.4866 63.2333 42.4859 63.2329 42.4852C58.2985 35.2638 50.4452 30.8732 39.8778 29.4234L41.1665 25.4251C47.9908 25.5774 54.4618 27.7936 59.9262 31.8579C60.1129 31.9967 60.3309 32.0638 60.547 32.0638C60.8651 32.0638 61.1792 31.9185 61.3837 31.6437C61.727 31.182 61.6311 30.5296 61.1694 30.1862C55.1419 25.703 47.9634 23.3333 40.4106 23.3333C39.9584 23.3333 39.5577 23.6251 39.4191 24.0555L31.4191 48.8781L28.6571 57.4473C28.6553 57.4528 28.6536 57.4584 28.652 57.464L25.1105 68.4524C24.7034 69.7175 25.0341 71.0895 25.9737 72.0332C26.9227 72.9862 28.3105 73.3253 29.5957 72.9173L44.8227 68.0847V72.258C44.8227 74.6247 46.7259 76.6016 49.0653 76.665C49.1064 76.6661 49.1476 76.6668 49.1886 76.6668C50.3372 76.6668 51.4168 76.2297 52.2402 75.4282C53.086 74.605 53.5519 73.5036 53.5519 72.3269V65.3142L59.0238 63.5776V68.3018C59.0238 70.3254 60.6798 71.9715 62.7154 71.9715C63.6989 71.9715 64.6245 71.591 65.3225 70.899C66.0211 70.2047 66.4059 69.2823 66.4059 68.3017V61.2347L74.3342 58.7189C74.7669 58.5817 75.0609 58.1799 75.0609 57.726C75.0609 50.2009 72.6569 43.0541 68.1089 37.0584V37.0584ZM61.9418 44.3086C62.9918 45.9457 63.8975 47.748 64.6433 49.684C64.208 49.9191 63.7177 50.0445 63.2143 50.0445C61.5554 50.0445 60.206 48.6951 60.206 47.0362C60.206 45.854 60.906 44.7949 61.9418 44.3086ZM34.1015 55.829C33.2648 56.6593 32.1357 57.0664 30.9954 56.9844L33.3568 49.6573C33.6259 49.8206 33.8761 50.0158 34.1007 50.2386C34.854 50.9861 35.2688 51.9791 35.2688 53.0347C35.2687 54.0897 34.8542 55.0821 34.1015 55.829ZM30.6906 70.3837C30.7055 68.7583 32.0324 67.4403 33.6613 67.4403C34.6318 67.4403 35.5239 67.9188 36.0722 68.6759L30.6906 70.3837ZM47.5836 64.4717C46.0608 65.9831 43.583 65.983 42.0602 64.4717C41.325 63.7423 40.9203 62.773 40.9203 61.7426C40.9203 60.712 41.3251 59.7428 42.0602 59.0132C42.8217 58.2576 43.8218 57.8798 44.822 57.8798C45.8222 57.8798 46.8223 58.2576 47.5837 59.0132C48.3188 59.7427 48.7236 60.7121 48.7236 61.7426C48.7235 62.773 48.3187 63.7424 47.5836 64.4717V64.4717ZM65.0491 59.4799C64.6165 59.6173 64.3226 60.019 64.3226 60.4727V68.3018C64.3226 68.7234 64.1561 69.1209 63.8549 69.4204C63.5505 69.722 63.1458 69.8882 62.7154 69.8882C61.8286 69.8882 61.1071 69.1765 61.1071 68.3018V62.1539C61.1071 61.8218 60.9486 61.5096 60.6805 61.3133C60.4125 61.1172 60.0669 61.0606 59.7502 61.1611L52.1951 63.5591C51.7625 63.6964 51.4685 64.0981 51.4685 64.5519V72.3269C51.4685 72.9365 51.2265 73.5076 50.7871 73.9352C50.3408 74.3696 49.7521 74.601 49.1218 74.5825C47.9 74.5494 46.906 73.5067 46.906 72.258V67.3165C47.6891 67.029 48.4232 66.5737 49.0511 65.9506C49.0511 65.9506 49.0511 65.9506 49.0511 65.9505C50.1833 64.8269 50.8068 63.3325 50.8068 61.7425C50.8068 60.1524 50.1833 58.658 49.0511 57.5345C46.7192 55.2202 42.9248 55.2201 40.5927 57.5344C39.4605 58.6579 38.837 60.1525 38.837 61.7425C38.837 63.3325 39.4605 64.8269 40.5927 65.9505C40.9566 66.3115 41.3561 66.6163 41.7799 66.8647L38.1179 68.027C37.251 66.4149 35.543 65.3572 33.6613 65.3572C30.8745 65.3572 28.6072 67.6245 28.6072 70.4114C28.6072 70.6085 28.6185 70.8043 28.641 70.9985C28.2017 71.0406 27.7728 70.8877 27.4499 70.5634C27.0571 70.1688 26.9239 69.6184 27.0935 69.0912L30.3438 59.0061C30.6583 59.0552 30.9735 59.0796 31.2873 59.0796C32.8673 59.0796 34.4045 58.4636 35.569 57.308C36.7188 56.167 37.352 54.6494 37.352 53.0349C37.352 51.4198 36.7185 49.9016 35.5681 48.7601C35.1102 48.3056 34.5814 47.9268 34.0074 47.6389L39.2285 31.4388C48.8294 32.6848 56.0551 36.431 60.7385 42.5875C59.1637 43.4702 58.1225 45.1621 58.1225 47.0365C58.1225 49.844 60.4067 52.1282 63.2142 52.1282C63.9536 52.1282 64.6763 51.9681 65.3363 51.6655C66.0408 53.8923 66.5677 56.3136 66.9079 58.8898L65.0491 59.4799Z" fill="black"/>
<path d="M51.4343 40.9718C51.4343 39.2967 50.7773 37.7223 49.5845 36.5384C47.1274 34.1003 43.1294 34.1003 40.6723 36.5384C39.4795 37.7222 38.8225 39.2966 38.8225 40.9718C38.8225 42.6469 39.4795 44.2213 40.6723 45.4051C41.9008 46.6242 43.5146 47.2338 45.1283 47.2338C46.7421 47.2338 48.3558 46.6242 49.5844 45.4051C50.7773 44.2213 51.4343 42.6469 51.4343 40.9718ZM48.117 43.9261C46.4691 45.5615 43.7877 45.5615 42.1398 43.9261C41.344 43.1366 40.9058 42.0874 40.9058 40.9718C40.9058 39.8561 41.344 38.807 42.1398 38.0174C42.9638 37.1997 44.0461 36.7909 45.1283 36.7909C46.2107 36.7909 47.2929 37.1998 48.1169 38.0174C48.9127 38.807 49.3508 39.8561 49.3508 40.9718C49.3509 42.0874 48.9128 43.1366 48.117 43.9261Z" fill="black"/>
<path d="M55.5058 49.9113C53.3871 47.7232 49.872 47.6776 47.67 49.8094C47.4716 50.0017 47.3575 50.2649 47.353 50.541C47.3487 50.8171 47.4541 51.0839 47.6463 51.2824L53.8821 57.7224C54.0864 57.9334 54.3582 58.0394 54.6305 58.0394C54.8915 58.0394 55.1528 57.9419 55.355 57.7462C57.5569 55.6142 57.6246 52.0995 55.5058 49.9113V49.9113ZM54.5444 55.4116L49.9773 50.6951C51.295 50.0306 52.9394 50.2558 54.0091 51.3606C55.079 52.4654 55.251 54.1161 54.5444 55.4116Z" fill="black"/>
</g>
<defs>
<clipPath id="clip0">
<rect width="53.3333" height="53.3333" fill="white" transform="translate(23.3334 23.3333)"/>
</clipPath>
</defs>
</svg>
