<svg width="150" height="150" viewBox="0 0 150 150" fill="none" xmlns="http://www.w3.org/2000/svg">
<circle cx="75" cy="75" r="75" fill="#D2D2D2"/>
<path d="M75.0763 78.167C67.6953 78.167 61.6901 84.1722 61.6901 91.5532C61.6901 98.9342 67.6953 104.939 75.0763 104.939C82.4579 104.939 88.4625 98.9342 88.4625 91.5532C88.4625 84.1722 82.4579 78.167 75.0763 78.167ZM75.0763 102.596C68.9874 102.596 64.0338 97.6421 64.0338 91.5532C64.0338 85.4644 68.9874 80.5108 75.0763 80.5108C81.1658 80.5108 86.1194 85.4644 86.1194 91.5532C86.1194 97.6421 81.1658 102.596 75.0763 102.596Z" fill="black"/>
<path d="M103.119 61.2135H103.027L105.702 48.2692C105.899 47.3158 105.704 46.335 105.166 45.5787C104.663 44.8695 103.913 44.4166 103.057 44.3031L98.5437 43.7056C98.2044 43.6604 97.8663 43.6738 97.5391 43.7355L97.5788 43.3992C97.6935 42.4232 97.4128 41.4497 96.8079 40.7295C96.2415 40.0545 95.4505 39.6553 94.5801 39.6058L91.2384 39.4148C91.3483 38.4657 91.0932 37.5111 90.5292 36.7811C89.9866 36.0792 89.2133 35.6392 88.3521 35.5427L83.6957 35.0203C82.8351 34.9232 81.98 35.1796 81.2879 35.7411C80.542 36.346 80.0599 37.2591 79.964 38.246L79.5404 42.6368C79.4281 42.4702 79.3018 42.3134 79.1608 42.1693C78.5419 41.5364 77.724 41.1879 76.8573 41.1879H72.2351C71.6205 41.1879 71.0328 41.3661 70.5213 41.6939L70.1886 38.246C70.0934 37.2591 69.6106 36.346 68.8648 35.7411C68.1733 35.1796 67.3188 34.9239 66.457 35.0203L61.8006 35.5427C60.9394 35.6392 60.1661 36.0792 59.6235 36.7811C59.0595 37.5111 58.8044 38.4657 58.9142 39.4148L55.5726 39.6058C54.7028 39.6553 53.9112 40.0545 53.3448 40.7295C52.7399 41.4497 52.4591 42.4232 52.5739 43.3992L52.6136 43.7361C52.2864 43.6744 51.9489 43.6604 51.6089 43.7056L47.096 44.3031C46.2397 44.4166 45.4908 44.8695 44.9866 45.5787C44.4489 46.335 44.2536 47.3158 44.4507 48.2692L47.1253 61.2135H47.0337C46.2482 61.2135 45.5072 61.5577 45.0007 62.1589C44.4941 62.7601 44.2804 63.5493 44.4141 64.3232L52.7698 112.794C52.9908 114.072 54.0924 115 55.3901 115H94.7632C96.0608 115 97.1625 114.072 97.3829 112.794L105.739 64.3232C105.873 63.5493 105.659 62.7601 105.153 62.1589C104.646 61.5577 103.905 61.2135 103.119 61.2135ZM97.1973 46.6462C97.4201 46.2312 97.8388 45.9749 98.2367 46.0292L102.75 46.6261C103.011 46.6609 103.169 46.8135 103.256 46.9362C103.417 47.1638 103.473 47.4769 103.407 47.7949L100.635 61.2129H98.9216L100.062 52.2029C100.178 51.2953 99.9176 50.3852 99.3494 49.7065C98.7964 49.0449 98.014 48.6561 97.1473 48.6116L96.9666 48.6024L97.1973 46.6462ZM95.5988 50.879L97.0276 50.9523C97.2944 50.9663 97.4604 51.1006 97.5525 51.2104C97.7057 51.3935 97.771 51.6413 97.7375 51.9081L96.5589 61.2135H91.084L91.7176 57.5135C91.8488 56.7475 91.695 55.9797 91.2909 55.3254L91.5699 51.7128C91.5967 51.3618 91.7902 51.053 92.0581 50.8772C92.2187 50.7722 92.406 50.7148 92.6001 50.7258L95.597 50.879H95.5988ZM89.7803 41.6817C89.7956 41.6823 89.8108 41.681 89.8267 41.6823H89.8273L94.4471 41.9453C94.7266 41.9618 94.9097 42.1126 95.0135 42.2358C95.2045 42.4641 95.2912 42.7882 95.2515 43.1251L94.892 46.1854C94.892 46.1854 94.8914 46.186 94.8914 46.1866L94.6216 48.4822L92.7198 48.3851C90.9363 48.2936 89.3738 49.7053 89.2328 51.5321L89.0534 53.8533L87.9572 53.6805L88.7091 42.8401C88.7531 42.1968 89.2414 41.6774 89.7803 41.6817ZM89.4074 57.118L88.686 61.3325C87.9218 61.5693 87.2956 62.1442 86.9947 62.9279C86.0791 65.312 84.4849 67.3493 82.3841 68.8203C82.1589 68.9777 81.9294 69.1254 81.6962 69.267L83.5804 56.1994C83.6115 55.9815 83.7262 55.7899 83.9032 55.6599C84.0802 55.5287 84.2969 55.4762 84.5142 55.5103L86.5131 55.8253C86.5137 55.8253 86.5149 55.8253 86.5162 55.8259L88.7305 56.175C88.9478 56.2092 89.1382 56.3264 89.2664 56.5052C89.3946 56.6841 89.4446 56.9013 89.4074 57.118ZM79.6814 65.5836L82.2968 38.4712C82.3328 38.105 82.5025 37.7736 82.7643 37.5612C82.9059 37.4464 83.1385 37.3158 83.4345 37.3494L88.0915 37.8712C88.3802 37.9036 88.5682 38.0757 88.6744 38.2136C88.8739 38.4718 88.9588 38.8264 88.9063 39.1865L88.8654 39.4685C88.8459 39.4746 88.8269 39.4819 88.8074 39.4881C88.783 39.496 88.7586 39.5045 88.7348 39.5131C88.6615 39.5381 88.5889 39.5656 88.5181 39.5961C88.4998 39.6034 88.4815 39.6113 88.4632 39.6199C88.3246 39.6815 88.191 39.7523 88.0622 39.8323C88.0506 39.839 88.0396 39.8463 88.028 39.8537C87.948 39.9049 87.8693 39.9592 87.7936 40.0172C87.7869 40.0221 87.7802 40.0264 87.7735 40.0319C87.7326 40.063 87.6929 40.0954 87.6539 40.1283C87.6453 40.1356 87.6368 40.143 87.6282 40.1503C87.5611 40.2083 87.4964 40.2681 87.4335 40.3309C87.4176 40.3468 87.4024 40.3621 87.3865 40.3786C87.3548 40.4115 87.3224 40.4451 87.2919 40.4799C87.2583 40.5177 87.2254 40.5562 87.1936 40.5952C87.1637 40.6318 87.1351 40.6685 87.1064 40.7057C87.085 40.7344 87.0643 40.7637 87.0429 40.793C87.016 40.8308 86.9892 40.8699 86.9629 40.9096C86.9336 40.9547 86.9049 41.0005 86.8775 41.0469C86.8604 41.0756 86.8439 41.1043 86.828 41.1336C86.7987 41.186 86.7707 41.2391 86.7438 41.2935C86.7316 41.3191 86.7188 41.3453 86.7072 41.3716C86.6816 41.4265 86.6571 41.4827 86.634 41.5394C86.6248 41.5626 86.6156 41.5852 86.6065 41.6084C86.5796 41.6792 86.5546 41.7512 86.5314 41.8239C86.5259 41.8416 86.521 41.8599 86.5162 41.8782C86.496 41.9447 86.4783 42.0125 86.4618 42.0814C86.4588 42.0961 86.4545 42.1107 86.4515 42.126C86.4338 42.2053 86.4191 42.2859 86.4063 42.3671C86.4039 42.3854 86.4008 42.4043 86.3984 42.4226C86.3868 42.5068 86.377 42.5923 86.3709 42.6784L85.6336 53.3143L84.8786 53.1959C84.0375 53.0622 83.1965 53.2685 82.5116 53.7739C81.8262 54.2799 81.3819 55.0227 81.2604 55.8656L79.6485 67.049L79.6814 65.5836ZM71.6101 43.8069C71.7322 43.6812 71.9397 43.5316 72.2351 43.5316H76.8573C77.1528 43.5316 77.3615 43.6818 77.4848 43.8081C77.7008 44.0291 77.8205 44.3477 77.8132 44.6821L77.3517 64.9519L76.8946 56.1958C76.847 55.2827 76.4649 54.4361 75.8191 53.8117C75.1496 53.1648 74.2847 52.8346 73.3802 52.8828L71.4985 52.9823L71.4588 51.4442L71.2861 44.6791C71.2775 44.3446 71.3959 44.0266 71.6101 43.8069ZM73.5041 55.2229C73.8349 55.2076 74.0766 55.3871 74.1901 55.4969C74.4086 55.7075 74.538 55.9992 74.5545 56.3178L75.3266 71.1139C75.2436 71.1152 75.16 71.1182 75.0763 71.1182C73.0988 71.1182 71.1805 70.6696 69.4379 69.809L68.1067 56.6004C68.0744 56.2818 68.1635 55.9736 68.3509 55.7551C68.4577 55.6312 68.6438 55.4798 68.927 55.4646L73.5041 55.2229ZM61.4783 38.2136C61.5851 38.0751 61.7731 37.9036 62.0618 37.8712L66.7182 37.3494C67.0154 37.3158 67.2467 37.4464 67.389 37.5612C67.6502 37.7736 67.8205 38.105 67.8559 38.4712L69.1169 51.5449L69.1571 53.1062L68.8031 53.1245C67.9358 53.1709 67.1436 53.5633 66.5717 54.2298C65.9693 54.933 65.6788 55.8821 65.7746 56.8354L66.4191 63.2294L64.9653 59.7456L63.7818 42.6784C63.7757 42.5923 63.7659 42.5075 63.7543 42.4232C63.7519 42.4043 63.7488 42.386 63.7464 42.3671C63.7336 42.2859 63.7189 42.2053 63.7012 42.1254C63.6982 42.1119 63.6945 42.0979 63.6914 42.0845C63.675 42.0137 63.6567 41.9447 63.6365 41.8757C63.6316 41.8599 63.6268 41.8428 63.6219 41.8269C63.5987 41.7518 63.573 41.6786 63.545 41.606C63.5376 41.5864 63.5297 41.5669 63.5218 41.5474C63.4961 41.4833 63.4687 41.4204 63.44 41.3588C63.4345 41.3466 63.4296 41.3344 63.4235 41.3234C63.3912 41.255 63.3558 41.1891 63.3191 41.1244C63.3075 41.103 63.2953 41.0817 63.2831 41.0603C63.2459 40.9974 63.2074 40.9352 63.1672 40.8754C63.1562 40.8589 63.1446 40.843 63.133 40.8265C63.0994 40.7777 63.0646 40.7301 63.0286 40.6837C63.014 40.6642 62.9987 40.6447 62.9841 40.6257C62.9395 40.5702 62.8937 40.5165 62.8461 40.464C62.8302 40.4463 62.8138 40.4292 62.7973 40.4115C62.7558 40.3676 62.7143 40.3255 62.6709 40.2846C62.6581 40.2717 62.6453 40.2589 62.6319 40.2461C62.5788 40.1967 62.5245 40.1497 62.4683 40.1033C62.4512 40.0892 62.4341 40.0758 62.4164 40.0618C62.3584 40.0154 62.2986 39.9708 62.2382 39.9281C62.2303 39.9232 62.2223 39.9183 62.215 39.9135C62.1558 39.8732 62.0954 39.8347 62.0337 39.7987C62.0209 39.7908 62.0081 39.7835 61.9953 39.7761C61.9275 39.7365 61.858 39.6998 61.7872 39.6657C61.7792 39.6614 61.7707 39.6577 61.7627 39.6541C61.6889 39.6193 61.6144 39.5863 61.5381 39.557C61.5381 39.5564 61.5375 39.5564 61.5369 39.5564C61.4582 39.5259 61.3776 39.4984 61.2958 39.474C61.2928 39.4734 61.2903 39.4722 61.2879 39.471L61.2464 39.1865C61.1945 38.8264 61.2787 38.4718 61.4783 38.2136ZM55.1398 42.2358C55.2436 42.1126 55.4261 41.9612 55.7062 41.9459L60.3284 41.6817H60.3315C60.337 41.6817 60.3431 41.6823 60.3486 41.6817C60.8979 41.6652 61.399 42.187 61.4441 42.8401L62.1485 52.9951L61.5668 51.6011C61.2146 50.7582 60.5701 50.0892 59.751 49.7187C59.6497 49.6724 59.5465 49.6327 59.4428 49.5967C59.4367 49.5948 59.4306 49.5924 59.4245 49.59C59.3244 49.5564 59.2243 49.5289 59.123 49.5045C59.1132 49.5027 59.1028 49.4996 59.0931 49.4972C58.9942 49.4746 58.8953 49.4581 58.7958 49.4447C58.7836 49.4429 58.7708 49.441 58.7586 49.4398C58.6609 49.4282 58.5627 49.4209 58.465 49.4184C58.451 49.4184 58.4375 49.4178 58.4241 49.4172C58.4076 49.4172 58.3912 49.416 58.3753 49.416C58.3234 49.416 58.2721 49.4209 58.2203 49.4233C58.1763 49.4258 58.1318 49.4264 58.0878 49.43C58.0219 49.4361 57.9566 49.4471 57.8907 49.4569C57.8498 49.4636 57.8083 49.4673 57.7674 49.4752C57.696 49.4899 57.6252 49.5088 57.5538 49.5277C57.5202 49.5369 57.486 49.5436 57.4518 49.5533C57.3475 49.5851 57.2443 49.6217 57.1424 49.6644L55.7398 50.251L55.528 48.4523L54.9012 43.1257C54.8621 42.7882 54.9488 42.4641 55.1398 42.2358ZM53.8178 53.5945L54.5118 53.3039L55.2094 53.0128H55.21L58.0469 51.8263C58.3533 51.6987 58.6408 51.7884 58.7848 51.8531C59.0613 51.9789 59.281 52.2096 59.4043 52.5038L65.2399 66.4875C64.3628 65.4279 63.6591 64.2304 63.1592 62.9279C62.7594 61.8861 61.7841 61.2129 60.6745 61.2129H56.4087L53.4278 54.9397C53.2904 54.6504 53.2703 54.3305 53.3735 54.0614C53.3948 54.004 53.4266 53.9393 53.4705 53.8752C53.5444 53.7684 53.6542 53.6628 53.8178 53.5945ZM46.7463 47.7949C46.6803 47.4769 46.7353 47.1638 46.897 46.9362C46.9843 46.8141 47.1424 46.6609 47.4036 46.6267L51.9165 46.0292C52.3133 45.9773 52.7326 46.2318 52.956 46.6468L53.2038 48.7507L53.4906 51.1909L52.9139 51.4326C52.1125 51.7677 51.4985 52.4037 51.1847 53.224C50.8533 54.0888 50.8997 55.0807 51.3111 55.9455L53.8141 61.2135H49.5185L46.7463 47.7949ZM103.43 63.9252L99.7284 85.3949H92.0643C91.4173 85.3949 90.8924 85.9192 90.8924 86.5668C90.8924 87.2138 91.4173 87.7387 92.0643 87.7387H99.3244L98.1055 94.8077H92.2187C91.5711 94.8077 91.0468 95.332 91.0468 95.9796C91.0468 96.6272 91.5711 97.1515 92.2187 97.1515H97.7015L95.0739 112.395C95.0476 112.546 94.917 112.656 94.7632 112.656H55.3901C55.2362 112.656 55.1056 112.546 55.0794 112.395L52.4518 97.1515H57.9346C58.5816 97.1515 59.1065 96.6272 59.1065 95.9796C59.1065 95.332 58.5816 94.8077 57.9346 94.8077H52.0478L50.8289 87.7387H58.125C58.772 87.7387 59.2969 87.2138 59.2969 86.5668C59.2969 85.9192 58.772 85.3949 58.125 85.3949H50.4248L46.7237 63.9252C46.7029 63.8056 46.7499 63.7202 46.7933 63.6689C46.836 63.6176 46.9129 63.5566 47.0343 63.5566H60.6745C60.8057 63.5566 60.9217 63.6396 60.9711 63.7678C62.0545 66.5894 63.9405 69.0003 66.4258 70.7398C68.9692 72.5208 71.9611 73.462 75.0769 73.462C75.2369 73.462 75.3986 73.4583 75.5622 73.4528C75.6385 73.4504 75.7154 73.4473 75.7923 73.4437C75.8594 73.44 75.9272 73.4363 75.9949 73.4321C76.7078 73.3893 77.4115 73.2978 78.1037 73.1568C78.1061 73.1562 78.108 73.1562 78.1098 73.1556C80.1185 72.7466 82.024 71.9324 83.7275 70.7398C86.2128 69.0003 88.0988 66.5894 89.1822 63.7678C89.2316 63.6396 89.3482 63.5566 89.4788 63.5566H103.12C103.24 63.5566 103.317 63.6176 103.36 63.6683C103.403 63.7202 103.45 63.8056 103.43 63.9252Z" fill="black"/>
</svg>
