<svg width="100" height="100" viewBox="0 0 100 100" fill="none" xmlns="http://www.w3.org/2000/svg">
<circle cx="50" cy="50" r="50" fill="#D2D2D2"/>
<g clip-path="url(#clip0)">
<path d="M32.3954 56.4729C32.7005 56.778 33.1951 56.778 33.5001 56.4729C33.8052 56.1678 33.8052 55.6732 33.5001 55.3682L32.3106 54.1787C32.0055 53.8736 31.5108 53.8736 31.2059 54.1787C30.9008 54.4838 30.9008 54.9784 31.2059 55.2834L32.3954 56.4729Z" fill="black"/>
<path d="M45.8805 44.0927C46.1856 43.7876 46.1856 43.2929 45.8805 42.9878L44.691 41.7983C44.3859 41.4932 43.8912 41.4932 43.5862 41.7983C43.2812 42.1034 43.2812 42.5981 43.5862 42.9031L44.7757 44.0927C45.0806 44.3976 45.5754 44.3977 45.8805 44.0927Z" fill="black"/>
<path d="M37.5239 50.5476C37.0938 50.518 36.7207 50.843 36.6911 51.2734C36.6615 51.7038 36.9865 52.0767 37.417 52.1063C38.5276 52.1823 39.6138 51.7753 40.3983 50.9909C41.1834 50.2058 41.5899 49.1191 41.5138 48.0095C41.4842 47.579 41.1117 47.2541 40.6809 47.2836C40.2505 47.3131 39.9256 47.686 39.955 48.1165C40.0002 48.7755 39.7591 49.4204 39.2935 49.8861C38.8279 50.3517 38.1825 50.5929 37.5239 50.5476V50.5476Z" fill="black"/>
<path d="M23.781 58.1621H23.7821C24.2136 58.1615 24.5629 57.8113 24.5623 57.3798C24.556 52.8612 25.8964 48.5151 28.442 44.8058C32.3557 39.0005 39.2192 35.1539 46.7559 35.1539C52.4603 35.1539 58.1067 37.3108 62.4503 41.6543C63.3401 42.544 63.9124 43.6767 64.0951 44.9136C64.3719 46.788 63.7381 48.6142 62.4503 49.902L39.3098 73.0421C37.0311 75.3209 33.342 75.3221 31.0622 73.0421C27.6124 69.5924 25.4374 65.2205 24.7724 60.3989C24.7134 59.9716 24.3198 59.6727 23.8918 59.7318C23.4644 59.7907 23.1657 60.185 23.2247 60.6123C23.9367 65.7741 26.2649 70.4542 29.9575 74.1467C32.8471 77.0364 37.5244 77.0369 40.4145 74.1467C41.345 73.2162 74.1622 40.399 74.1622 40.399C77.052 37.5093 77.0524 32.8322 74.1622 29.942C70.263 26.0427 65.0972 23.6093 59.6168 23.0901C59.1872 23.0494 58.8061 23.3646 58.7653 23.7941C58.7246 24.2236 59.0399 24.6048 59.4694 24.6455C64.5888 25.1306 69.4146 27.404 73.0575 31.0469C75.3367 33.3261 75.3371 37.0149 73.0575 39.2945L71.7302 40.6219C71.6521 38.8266 70.6021 37.2247 68.9634 36.4831V36.483C68.9374 33.92 67.3966 31.6732 65.1602 30.6696C65.1032 29.896 64.7666 29.2096 64.2571 28.7C64.2569 28.6998 64.2567 28.6997 64.2565 28.6994C63.6733 28.1169 62.8903 27.7874 62.054 27.7874C61.7166 27.7874 61.3878 27.8416 61.0765 27.9441C59.2327 26.2217 56.5985 25.7248 54.2713 26.6571C53.7607 26.1567 53.1777 25.7503 52.5438 25.4484C53.8986 24.9478 55.1821 24.6656 56.4806 24.5767C56.911 24.5472 57.2361 24.1743 57.2066 23.7439C57.1771 23.3135 56.8053 22.9884 56.3738 23.0179C54.3006 23.16 52.2805 23.7375 50.0341 24.8291C49.9446 24.8253 49.855 24.8225 49.7649 24.8225C48.0703 24.8225 46.4579 25.4851 45.2581 26.658C42.9268 25.7236 40.28 26.2307 38.4522 27.9457C36.5185 27.3107 34.5162 28.6606 34.3694 30.6716C32.0817 31.7009 30.5939 33.9716 30.5664 36.4785C29.8119 36.7999 29.1364 37.2562 28.5528 37.8398C26.8701 39.5225 26.2559 41.9997 26.932 44.2518C24.352 48.1456 22.9933 52.6767 22.9998 57.3819C23.0004 57.813 23.35 58.1621 23.781 58.1621V58.1621ZM49.0716 31.9304C49.6772 31.3248 50.6626 31.3248 51.2682 31.9304C51.5616 32.2238 51.7232 32.6139 51.7232 33.0288C51.7232 33.4012 51.5928 33.7535 51.3538 34.0341C50.5012 33.8678 49.6357 33.7486 48.7607 33.676C48.4958 33.098 48.6082 32.3938 49.0716 31.9304ZM63.1523 29.8044C63.1581 29.8174 63.6944 30.2862 63.5928 31.0973V31.0974C63.4961 31.8682 62.8451 32.456 62.054 32.456C61.5135 32.456 61.0368 32.1816 60.757 31.7578C60.7565 31.757 60.7561 31.7561 60.7555 31.7554C60.274 31.0226 60.4888 30.0109 61.2848 29.5557C61.8958 29.2063 62.6633 29.3159 63.1523 29.8044V29.8044ZM37.4755 29.3501C38.3064 29.3501 39.028 30.0207 39.028 30.9027C39.028 31.7069 38.4185 32.3723 37.6244 32.4482C36.6801 32.5384 35.9222 31.7756 35.9222 30.9027C35.9223 30.0387 36.622 29.3501 37.4755 29.3501ZM29.6574 38.9442C30.205 38.3967 30.8604 37.997 31.6055 37.7563C31.9314 37.651 32.1751 37.3358 32.1434 36.9332C31.9912 34.9926 33.0053 33.1743 34.6717 32.2634C35.1859 33.3212 36.2634 34.0169 37.4756 34.0169C40.1565 34.0169 41.5851 30.8392 39.8071 28.8358C41.1755 27.7367 43.0351 27.4469 44.6864 28.1117C44.822 28.1656 44.9583 28.2274 45.0916 28.2955C45.4192 28.4627 45.819 28.3788 46.0517 28.094L46.0534 28.0918C46.9832 27.0065 48.3354 26.3844 49.7649 26.3844C51.1835 26.3844 52.5418 27.0007 53.4763 28.0919C53.4871 28.1005 53.6725 28.3607 54.0442 28.3795C54.2305 28.3886 54.3411 28.3363 54.4462 28.2909C54.4462 28.2909 54.4463 28.2909 54.4463 28.2908C56.1141 27.4439 58.1787 27.5952 59.7222 28.8362C59.2166 29.4058 58.9384 30.1339 58.9384 30.9026C58.9384 31.7228 59.2536 32.4942 59.8261 33.0797C60.4116 33.6776 61.199 34.0184 62.0541 34.0184C63.2982 34.0184 64.3571 33.2941 64.8583 32.2629C66.535 33.1817 67.538 35.003 67.3863 36.933C67.3549 37.3289 67.5915 37.6485 67.9234 37.756C69.1231 38.1445 69.8522 39.0267 70.0923 40.1077C70.3373 41.2101 70.009 42.343 69.2142 43.1377L65.6657 46.6861C65.9432 44.4082 65.1734 42.1671 63.555 40.5492C60.6163 37.6105 57.0009 35.4929 52.9647 34.4076C53.1741 33.984 53.2856 33.515 53.2856 33.0285C53.2856 32.1963 52.9615 31.414 52.373 30.8255C51.1582 29.6106 49.1817 29.6107 47.9669 30.8255C47.226 31.5663 46.9323 32.6138 47.1117 33.5956C46.9932 33.5938 46.8747 33.5913 46.7559 33.5913C39.888 33.5913 33.0602 36.5372 28.2239 42.4819C28.2046 41.182 28.7059 39.8957 29.6574 38.9442V38.9442Z" fill="black"/>
</g>
<defs>
<clipPath id="clip0">
<rect width="53.33" height="53.33" fill="white" transform="translate(23 23)"/>
</clipPath>
</defs>
</svg>
